<?xml version="1.0" standalone="no"?>
<!DOCTYPE svg PUBLIC "-//W3C//DTD SVG 20010904//EN"
 "http://www.w3.org/TR/2001/REC-SVG-20010904/DTD/svg10.dtd">
<svg version="1.0" xmlns="http://www.w3.org/2000/svg"
 width="478.000000pt" height="478.000000pt" viewBox="0 0 478.000000 478.000000"
 preserveAspectRatio="xMidYMid meet">
<metadata>
Created by potrace 1.14, written by Peter Selinger 2001-2017
</metadata>
<g transform="translate(0.000000,478.000000) scale(0.100000,-0.100000)"
fill="#000000" stroke="none">
<path d="M1193 4773 c658 -2 1736 -2 2395 0 658 1 119 2 -1198 2 -1317 0
-1856 -1 -1197 -2z"/>
<path d="M1154 3946 c-54 -25 -83 -58 -102 -115 -19 -55 -16 -1342 3 -1496 82
-660 539 -1151 1196 -1285 128 -26 501 -29 630 -4 516 98 999 548 1130 1051
12 49 22 129 26 214 l6 136 -29 31 c-25 28 -40 34 -119 48 -130 23 -388 23
-486 0 -130 -30 -142 -46 -208 -271 -42 -146 -167 -282 -338 -369 -99 -51
-206 -76 -321 -76 -116 0 -190 18 -311 76 -157 76 -268 204 -315 363 -18 62
-22 225 -6 283 l11 37 86 -30 c47 -17 129 -39 180 -50 52 -10 98 -21 102 -24
4 -2 34 -8 65 -13 162 -26 236 58 265 296 25 205 -49 399 -182 476 -23 14 -69
35 -102 47 -94 34 -211 108 -279 175 -95 96 -131 166 -181 346 -22 79 -52 119
-110 148 -49 24 -56 25 -305 28 -252 3 -256 2 -306 -22z"/>
</g>
</svg>
