<svg data-v-423bf9ae="" xmlns="http://www.w3.org/2000/svg" viewBox="0 0 225 90" class="iconLeft"><!----><!----><!----><g data-v-423bf9ae="" id="c3d3c971-7839-47cd-8ae5-394cb2078fa6" fill="white" transform="matrix(4.225352169431124,0,0,4.225352169431124,63.13069674059933,6.422534024850222)"><path d="M5.54 7.76L5.54 7.76L5.54 7.76Q5.54 8.34 5.32 8.57L5.32 8.57L5.32 8.57Q5.10 8.79 4.66 8.79L4.66 8.79L3.65 8.79L3.65 8.79Q3.60 9.16 3.36 10.53L3.36 10.53L3.36 10.53Q2.88 13.13 2.88 14.46L2.88 14.46L2.88 14.46Q2.88 15.79 3.08 16.23L3.08 16.23L3.08 16.23Q2.28 15.93 1.95 15.34L1.95 15.34L1.95 15.34Q1.61 14.74 1.61 13.89L1.61 13.89L1.61 13.89Q1.61 13.03 1.72 12.27L1.72 12.27L1.72 12.27Q1.82 11.51 2.02 10.49L2.02 10.49L2.02 10.49Q2.21 9.46 2.30 8.85L2.30 8.85L2.30 8.85Q1.50 8.96 0.73 9.30L0.73 9.30L0.73 9.30Q0.70 9.07 0.70 8.89L0.70 8.89L0.70 8.89Q0.70 8.22 1.15 7.99L1.15 7.99L1.15 7.99Q1.60 7.76 2.44 7.76L2.44 7.76L2.44 7.76Q2.53 6.72 2.53 6.21L2.53 6.21L2.53 6.21Q2.53 5.70 2.53 5.39L2.53 5.39L2.53 5.39Q2.52 5.08 2.52 4.93L2.52 4.93L2.52 4.93Q3.16 5.03 3.51 5.50L3.51 5.50L3.51 5.50Q3.86 5.96 3.86 6.78L3.86 6.78L3.86 6.78Q3.86 7.20 3.79 7.80L3.79 7.80L3.79 7.80Q5.01 7.80 5.52 7.39L5.52 7.39L5.52 7.39Q5.54 7.59 5.54 7.76ZM11.76 10.83L11.76 10.83L11.76 10.83Q11.76 9.46 11.42 8.87L11.42 8.87L11.42 8.87Q11.07 8.27 10.44 8.27L10.44 8.27L10.44 8.27Q9.80 8.27 9.16 8.90L9.16 8.90L9.16 8.90Q8.51 9.52 8.14 10.44L8.14 10.44L8.14 10.44Q7.77 11.35 7.77 12.34L7.77 12.34L7.77 12.34Q7.77 13.33 8.15 14.05L8.15 14.05L8.15 14.05Q8.53 14.77 9.30 14.77L9.30 14.77L9.30 14.77Q10.39 14.77 11.07 13.48L11.07 13.48L11.07 13.48Q11.76 12.19 11.76 10.83ZM7.70 10.29L7.70 10.29Q8.23 8.78 9.13 8.09L9.13 8.09L9.13 8.09Q10.04 7.39 10.97 7.39L10.97 7.39L10.97 7.39Q11.90 7.39 12.52 8.21L12.52 8.21L12.52 8.21Q13.13 9.03 13.13 10.43L13.13 10.43L13.13 10.43Q13.13 11.97 12.54 13.29L12.54 13.29L12.54 13.29Q11.89 14.74 10.64 15.32L10.64 15.32L10.64 15.32Q9.97 15.64 9.16 15.64L9.16 15.64L9.16 15.64Q8.02 15.64 7.17 14.69L7.17 14.69L7.17 14.69Q6.31 13.75 6.31 11.99L6.31 11.99L6.31 11.99Q6.31 10.23 7.07 8.95L7.07 8.95L7.07 8.95Q7.83 7.66 9.13 7.15L9.13 7.15L9.13 7.15Q9.41 7.15 9.41 7.43L9.41 7.43L9.41 7.43Q8.02 8.34 7.70 10.29L7.70 10.29ZM15.19 14.41L15.19 14.41L15.19 14.41Q15.18 14.18 15.18 13.69L15.18 13.69L15.18 13.69Q15.18 13.19 15.64 9.44L15.64 9.44L15.64 9.44Q16.11 5.68 16.11 4.28L16.11 4.28L16.11 4.28Q16.11 2.88 15.95 2.46L15.95 2.46L15.95 2.46Q16.73 2.76 17.05 3.33L17.05 3.33L17.05 3.33Q17.37 3.91 17.37 4.72L17.37 4.72L17.37 4.72Q17.37 5.53 16.97 8.92L16.97 8.92L16.97 8.92Q16.56 12.31 16.56 14.38L16.56 14.38L16.56 14.38Q16.56 14.83 16.62 15.64L16.62 15.64L16.62 15.64Q15.85 15.58 15.53 15.27L15.53 15.27L15.53 15.27Q15.26 15.02 15.19 14.41ZM21.84 4.73L21.84 4.73L21.84 4.73Q21.84 5.36 21.57 7.35L21.57 7.35L21.57 7.35Q21.29 9.34 21.20 10.43L21.20 10.43L21.20 10.43Q21.60 8.96 22.37 8.16L22.37 8.16L22.37 8.16Q23.13 7.35 24.02 7.35L24.02 7.35L24.02 7.35Q24.92 7.35 25.56 8.20L25.56 8.20L25.56 8.20Q26.21 9.06 26.21 10.39L26.21 10.39L26.21 10.39Q26.21 12.47 25.18 13.90L25.18 13.90L25.18 13.90Q24.15 15.33 22.65 15.33L22.65 15.33L22.65 15.33Q22.25 15.33 21.83 15.20L21.83 15.20L21.83 15.20Q22.72 14.98 23.40 14.16L23.40 14.16L23.40 14.16Q24.08 13.34 24.39 12.38L24.39 12.38L24.39 12.38Q24.70 11.42 24.70 10.60L24.70 10.60L24.70 10.60Q24.70 9.77 24.40 9.22L24.40 9.22L24.40 9.22Q24.11 8.67 23.49 8.67L23.49 8.67L23.49 8.67Q22.88 8.67 22.30 9.39L22.30 9.39L22.30 9.39Q21.71 10.12 21.34 11.31L21.34 11.31L21.34 11.31Q20.97 12.50 20.97 13.63L20.97 13.63L20.97 13.63Q20.97 14.76 21.24 15.68L21.24 15.68L21.24 15.68Q20.50 15.44 20.07 14.67L20.07 14.67L20.07 14.67Q19.64 13.90 19.64 12.85L19.64 12.85L19.64 12.85Q19.64 11.79 20.11 8.78L20.11 8.78L20.11 8.78Q20.58 5.77 20.58 4.38L20.58 4.38L20.58 4.38Q20.58 3.00 20.45 2.03L20.45 2.03L20.45 2.03Q21.84 2.53 21.84 4.73ZM31.86 8.08L31.86 8.08L31.86 8.08Q31.02 8.08 30.44 9.04L30.44 9.04L30.44 9.04Q29.86 10.01 29.67 11.31L29.67 11.31L30.06 11.31L30.06 11.31Q30.80 11.31 31.35 11.10L31.35 11.10L31.35 11.10Q31.89 10.89 32.19 10.56L32.19 10.56L32.19 10.56Q32.75 9.91 32.75 9.10L32.75 9.10L32.75 9.10Q32.75 8.64 32.53 8.36L32.53 8.36L32.53 8.36Q32.31 8.08 31.86 8.08ZM33.84 13.75L33.84 13.75Q33.19 14.80 32.42 15.22L32.42 15.22L32.42 15.22Q31.65 15.64 30.64 15.64L30.64 15.64L30.64 15.64Q29.62 15.64 28.87 14.74L28.87 14.74L28.87 14.74Q28.11 13.85 28.11 12.22L28.11 12.22L28.11 12.22Q28.11 10.37 29.11 8.92L29.11 8.92L29.11 8.92Q29.60 8.22 30.39 7.78L30.39 7.78L30.39 7.78Q31.18 7.35 32.13 7.35L32.13 7.35L32.13 7.35Q34.23 7.35 34.23 9.38L34.23 9.38L34.23 9.38Q34.23 10.60 33.29 11.29L33.29 11.29L33.29 11.29Q32.34 11.98 31.09 11.98L31.09 11.98L31.09 11.98Q30.27 11.98 29.61 11.83L29.61 11.83L29.61 11.83Q29.60 11.97 29.60 12.26L29.60 12.26L29.60 12.26Q29.60 14.74 31.07 14.74L31.07 14.74L31.07 14.74Q32.45 14.74 33.32 13.37L33.32 13.37L33.32 13.37Q33.84 13.44 33.84 13.75L33.84 13.75ZM35.94 14.41L35.94 14.41L35.94 14.41Q35.92 14.18 35.92 13.69L35.92 13.69L35.92 13.69Q35.92 13.19 36.39 9.44L36.39 9.44L36.39 9.44Q36.86 5.68 36.86 4.28L36.86 4.28L36.86 4.28Q36.86 2.88 36.69 2.46L36.69 2.46L36.69 2.46Q37.48 2.76 37.80 3.33L37.80 3.33L37.80 3.33Q38.12 3.91 38.12 4.72L38.12 4.72L38.12 4.72Q38.12 5.53 37.72 8.92L37.72 8.92L37.72 8.92Q37.31 12.31 37.31 14.38L37.31 14.38L37.31 14.38Q37.31 14.83 37.37 15.64L37.37 15.64L37.37 15.64Q36.60 15.58 36.27 15.27L36.27 15.27L36.27 15.27Q36.01 15.02 35.94 14.41Z"></path></g><!----><g data-v-423bf9ae="" id="b03370c5-46b1-43a5-87e6-296eca0a200c" transform="matrix(2.8125,0,0,2.8125,-21.194407999515533,0)" stroke="none" fill="white"><path d="M18.396 26.495L7.807 15.905 18.432 5.28l.707.707-9.918 9.918 9.882 9.883z"></path><path d="M23.194 1v4.194H19V1h4.194m1-1H18v6.194h6.194V0zM23.194 26.806V31H19v-4.194h4.194m1-1H18V32h6.194v-6.194z"></path></g><!----></svg>